<?xml version="1.0" encoding="UTF-8" standalone="no"?>
<svg
   version="1.1"
   id="Capa_1"
   width="800px"
   height="800px"
   viewBox="0 0 49.07 49.069"
   sodipodi:docname="icon.svg"
   inkscape:version="1.3.2 (091e20ef0f, 2023-11-25)"
   xmlns:inkscape="http://www.inkscape.org/namespaces/inkscape"
   xmlns:sodipodi="http://sodipodi.sourceforge.net/DTD/sodipodi-0.dtd"
   xmlns="http://www.w3.org/2000/svg"
   xmlns:svg="http://www.w3.org/2000/svg">
  <sodipodi:namedview
     id="namedview2"
     pagecolor="#ffffff"
     bordercolor="#000000"
     borderopacity="0.25"
     inkscape:showpageshadow="2"
     inkscape:pageopacity="0.0"
     inkscape:pagecheckerboard="0"
     inkscape:deskcolor="#d1d1d1"
     inkscape:zoom="0.37874407"
     inkscape:cx="398.68611"
     inkscape:cy="278.55222"
     inkscape:window-width="1920"
     inkscape:window-height="1029"
     inkscape:window-x="0"
     inkscape:window-y="0"
     inkscape:window-maximized="1"
     inkscape:current-layer="Capa_1" />
  <defs
     id="defs1" />
  <rect
     style="fill:#f9f9f9;stroke-width:0.0052544;stroke-linecap:round;paint-order:stroke fill markers"
     id="rect1"
     width="36.939991"
     height="30.872543"
     x="5.8649092"
     y="11.690709"
     ry="0.099170506" />
  <path
     d="m 18,32.20815 q 6.5,4 13,0"
     fill="none"
     stroke="#000000"
     stroke-width="2"
     style="stroke-linecap:round"
     id="path1" />
  <circle
     cx="17.743"
     cy="25.195"
     r="2.25"
     fill="#000000"
     id="circle1" />
  <circle
     cx="31.327"
     cy="25.195"
     r="2.25"
     fill="#000000"
     id="circle2" />
  <path
     d="M 48.233,38.788 C 47.948,37.831 47.679,36.927 47.623,36.303 47.337,33.128 47.477,23.453 47.478,23.349 47.478,10.896 37.198,0.765 24.562,0.765 11.926,0.764 1.645,10.895 1.645,23.366 c 0.004,0.098 0.322,9.833 0.002,13.016 -0.063,0.636 -0.373,1.562 -0.7,2.537 -0.624,1.867 -1.271,3.8 -0.767,5.072 0.521,1.309 3.049,2.592 4.199,2.826 4.631,0.944 11.879,1.487 19.887,1.487 0.002,0 0.002,0 0.002,0 8.138,0 15.548,-0.55 20.33,-1.509 1.183,-0.237 3.694,-1.479 4.256,-2.795 0.547,-1.281 -0.048,-3.278 -0.621,-5.212 z m -9.316,-7.707 c -2.034,5.91 -7.694,10.17 -14.378,10.183 -6.69,-0.013 -12.356,-4.278 -14.387,-10.2 -0.017,0.01 -0.034,0.012 -0.05,0.02 -0.002,-0.006 -0.006,-0.012 -0.008,-0.02 -0.26,0.125 -0.545,0.193 -0.846,0.198 -1.23,-0.019 -2.213,-1.155 -2.213,-2.562 0,-1.403 0.983,-2.541 2.214,-2.559 0.01,0.001 0.018,0.002 0.025,0.003 0.343,0.584 0.734,1.146 1.179,1.683 -0.353,-1.209 -0.56,-2.444 -0.617,-3.683 1.147,-1.161 2.147,-3.027 2.681,-5.252 0.238,-0.993 0.36,-1.965 0.381,-2.876 1.16,1.754 2.533,3.511 3.688,4.097 1.594,0.809 4.29,1.202 8.246,1.202 0,0 0,0 10e-4,0 4.489,0 9.524,-0.53 12.194,-0.856 0.562,1.533 1.342,2.811 2.209,3.688 -0.059,1.234 -0.266,2.473 -0.617,3.68 0.443,-0.535 0.836,-1.098 1.178,-1.682 1.218,0.036 2.185,1.163 2.185,2.557 0,1.403 -0.982,2.541 -2.213,2.561 -0.279,-0.005 -0.545,-0.066 -0.791,-0.18 -0.002,0.007 -0.004,0.013 -0.006,0.019 -0.02,-0.008 -0.039,-0.011 -0.055,-0.021 z"
     fill="#000000"
     id="path2"
     style="fill:#ffecb3;fill-opacity:1;stroke:#000000;stroke-opacity:1" />
</svg>
