<?xml version="1.0" encoding="UTF-8" standalone="no"?>
<svg
   version="1.1"
   id="Capa_1"
   width="800px"
   height="800px"
   viewBox="0 0 49.07 49.069"
   sodipodi:docname="icon.svg"
   inkscape:version="1.3.2 (091e20ef0f, 2023-11-25)"
   xmlns:inkscape="http://www.inkscape.org/namespaces/inkscape"
   xmlns:sodipodi="http://sodipodi.sourceforge.net/DTD/sodipodi-0.dtd"
   xmlns="http://www.w3.org/2000/svg"
   xmlns:svg="http://www.w3.org/2000/svg">
  <sodipodi:namedview
     id="namedview2"
     pagecolor="#ffffff"
     bordercolor="#000000"
     borderopacity="0.25"
     inkscape:showpageshadow="2"
     inkscape:pageopacity="0.0"
     inkscape:pagecheckerboard="0"
     inkscape:deskcolor="#d1d1d1"
     inkscape:zoom="0.75748814"
     inkscape:cx="467.33405"
     inkscape:cy="510.23901"
     inkscape:window-width="1920"
     inkscape:window-height="1029"
     inkscape:window-x="0"
     inkscape:window-y="0"
     inkscape:window-maximized="1"
     inkscape:current-layer="Capa_1" />
  <defs
     id="defs1" />
  <g
     id="g1"
     transform="translate(0.70855956,1.453677)">
    <rect
       style="fill:#f9f9f9;stroke-width:0.00499716;stroke-linecap:round;paint-order:stroke fill markers"
       id="rect1"
       width="35.131496"
       height="29.361097"
       x="6.069593"
       y="10.865833"
       ry="0.09431535" />
    <path
       d="m 17.61058,30.37879 q 6.181775,3.804169 12.36355,0"
       fill="none"
       stroke="#000000"
       stroke-width="1.90209"
       style="stroke-linecap:round"
       id="path1" />
    <circle
       cx="17.366161"
       cy="23.708986"
       r="2.1398454"
       fill="#000000"
       id="circle1"
       style="stroke-width:0.951042" />
    <circle
       cx="30.28512"
       cy="23.708986"
       r="2.1398454"
       fill="#000000"
       id="circle2"
       style="stroke-width:0.951042" />
    <path
       d="M 46.363443,36.636506 C 46.092397,35.726358 45.836566,34.866616 45.783307,34.273166 45.51131,31.253605 45.644455,22.052271 45.645407,21.953363 45.645407,10.110031 35.86869,0.47502107 23.851319,0.47502107 11.833948,0.47407007 2.0562806,10.109081 2.0562806,21.96953 c 0.00381,0.0932 0.3062357,9.3516 0.0019,12.378767 -0.059916,0.604864 -0.3547388,1.485529 -0.6657297,2.412795 -0.59345039,1.775597 -1.2087748,3.613961 -0.72944949,4.823687 0.49549309,1.244914 2.89972819,2.465102 3.99342699,2.687646 4.4042773,0.897784 11.2974326,1.4142 18.9133806,1.4142 0.0019,0 0.0019,0 0.0019,0 7.739583,0 14.786807,-0.523073 19.334692,-1.435123 1.125083,-0.225397 3.51315,-1.406592 4.047636,-2.658163 0.52022,-1.218286 -0.04565,-3.117518 -0.590598,-4.956833 z m -8.85991,-7.329684 c -1.93442,5.62066 -7.317321,9.672101 -13.674088,9.684464 -6.362473,-0.01236 -11.751079,-4.068559 -13.682646,-9.700632 -0.01617,0.0095 -0.03234,0.01142 -0.04755,0.01902 -0.0019,-0.0057 -0.0057,-0.01142 -0.0076,-0.01902 -0.2472715,0.11888 -0.5183185,0.183552 -0.8045824,0.188307 -1.1697821,-0.01807 -2.1046568,-1.098454 -2.1046568,-2.436571 0,-1.334312 0.9348747,-2.416598 2.1056079,-2.433718 0.00951,9.52e-4 0.017119,0.0019 0.023776,0.0029 0.326208,0.555409 0.6980663,1.089894 1.1212793,1.600604 -0.335718,-1.149811 -0.5325843,-2.324348 -0.5867933,-3.502689 1.0908453,-1.10416 2.0418883,-2.878806 2.5497453,-4.994874 0.226348,-0.944385 0.342375,-1.868799 0.362347,-2.735199 1.103209,1.668128 2.408991,3.33911 3.507445,3.896421 1.515961,0.769393 4.079971,1.143153 7.842295,1.143153 0,0 0,0 9.5e-4,0 4.26923,0 9.057728,-0.504052 11.597011,-0.814093 0.534487,1.457949 1.276299,2.673381 2.100853,3.507445 -0.05611,1.173587 -0.252977,2.351927 -0.586794,3.499836 0.421312,-0.508808 0.795072,-1.044245 1.120328,-1.599653 1.15837,0.03423 2.078028,1.106062 2.078028,2.431815 0,1.334313 -0.933923,2.416599 -2.104656,2.435619 -0.265341,-0.0047 -0.518319,-0.06277 -0.752275,-0.171187 -0.0019,0.0067 -0.0038,0.01236 -0.0057,0.01807 -0.01902,-0.0076 -0.03709,-0.01046 -0.05231,-0.01998 z"
       fill="#000000"
       id="path2"
       style="fill:#ffecb3;fill-opacity:1;stroke:#000000;stroke-width:0.951042;stroke-opacity:1" />
  </g>
</svg>
